<?xml version="1.0" standalone="no"?>
<!DOCTYPE svg PUBLIC "-//W3C//DTD SVG 20010904//EN"
 "http://www.w3.org/TR/2001/REC-SVG-20010904/DTD/svg10.dtd">
<svg version="1.0" xmlns="http://www.w3.org/2000/svg"
 width="1280.000000pt" height="1273.000000pt" viewBox="0 0 1280.000000 1273.000000"
 preserveAspectRatio="xMidYMid meet">
<metadata>
Created by potrace 1.15, written by Peter Selinger 2001-2017
</metadata>
<g transform="translate(0.000000,1273.000000) scale(0.100000,-0.100000)"
fill="#4caf50" stroke="none">
<path d="M9875 12720 c-142 -23 -234 -63 -338 -148 -93 -75 -249 -242 -303
-324 -55 -82 -86 -109 -183 -157 -101 -51 -687 -271 -721 -271 -7 0 -58 21
-114 47 -210 96 -325 123 -530 123 -142 0 -177 -10 -391 -115 -270 -132 -380
-212 -467 -339 -82 -120 -185 -375 -207 -511 -13 -86 -62 -187 -140 -292 -66
-89 -100 -124 -229 -241 -120 -109 -182 -201 -222 -334 -18 -55 -55 -153 -84
-217 -66 -144 -73 -167 -79 -262 -5 -75 -27 -147 -50 -161 -7 -4 -27 -8 -46
-8 -59 0 -108 -21 -178 -76 -123 -97 -176 -130 -313 -197 -74 -37 -160 -80
-190 -97 -60 -34 -72 -34 -170 -5 -96 29 -250 -4 -312 -66 -15 -15 -65 -45
-110 -68 -109 -53 -233 -135 -285 -188 -67 -70 -208 -362 -272 -569 -17 -54
-45 -166 -61 -249 -45 -224 -53 -246 -112 -312 -106 -120 -209 -303 -221 -389
-2 -23 -14 -55 -25 -70 -12 -16 -50 -103 -85 -194 -36 -91 -87 -218 -115 -282
-89 -203 -86 -184 -83 -668 l2 -425 -70 -38 c-39 -21 -112 -65 -162 -98 -94
-62 -133 -82 -142 -73 -8 8 23 90 86 234 66 152 107 276 141 435 72 330 108
459 173 625 25 63 70 190 99 282 93 292 122 603 75 810 -49 218 -132 523 -155
573 -49 108 -151 180 -322 230 -127 37 -174 34 -275 -17 -71 -35 -101 -59
-189 -149 -58 -58 -126 -120 -151 -137 -90 -60 -291 -301 -399 -477 -85 -139
-187 -397 -225 -570 -20 -92 -53 -178 -192 -500 -55 -126 -108 -255 -118 -285
-17 -51 -38 -99 -188 -425 -30 -66 -71 -167 -92 -225 -58 -163 -109 -287 -179
-437 -111 -239 -207 -490 -367 -960 -49 -144 -102 -295 -118 -337 -57 -143
-72 -244 -78 -526 -3 -156 -1 -304 6 -380 15 -168 58 -461 78 -535 11 -39 16
-99 16 -170 0 -170 -36 -289 -109 -365 -45 -47 -95 -159 -139 -310 -49 -171
-70 -221 -133 -322 -71 -115 -103 -209 -110 -319 -7 -127 2 -173 46 -221 20
-22 59 -53 87 -69 41 -24 61 -29 117 -29 129 0 304 76 450 197 129 107 141
113 233 113 47 0 111 -8 155 -20 41 -10 170 -44 285 -74 116 -30 244 -66 285
-81 122 -43 330 -149 398 -201 93 -72 114 -84 144 -84 44 0 141 -41 168 -71
14 -15 38 -41 53 -58 16 -18 50 -42 77 -56 30 -15 66 -47 99 -87 28 -35 81
-99 116 -143 36 -44 79 -103 95 -132 43 -75 88 -123 140 -146 62 -28 223 -30
292 -4 42 16 49 23 59 60 20 75 5 141 -83 358 -102 249 -159 355 -289 529 -54
74 -99 137 -99 140 0 13 72 93 116 131 139 115 222 142 454 143 150 1 172 -1
235 -23 86 -30 241 -94 358 -150 48 -23 113 -47 145 -52 70 -13 164 -6 196 15
32 21 105 133 112 175 12 63 -66 181 -150 227 -27 15 -104 68 -171 117 -242
179 -489 319 -804 456 -170 74 -221 102 -221 122 0 13 67 44 175 79 55 18 125
45 155 61 86 44 162 57 700 121 407 48 581 53 855 24 220 -24 628 -32 780 -16
66 6 170 25 230 40 154 40 221 48 451 56 l200 7 65 -73 c187 -211 550 -442
763 -485 127 -25 357 -31 436 -11 119 31 180 90 180 177 0 99 -100 188 -253
229 -296 77 -508 204 -467 280 18 33 82 43 225 34 328 -21 599 -8 815 38 114
24 166 45 224 93 86 70 114 137 81 195 -8 14 -14 38 -15 53 0 23 7 31 35 43
51 21 88 18 119 -11 22 -20 37 -25 80 -25 75 0 200 23 346 65 173 49 235 54
295 25 113 -55 279 -201 309 -274 26 -62 390 -402 473 -441 66 -31 189 20 247
103 27 38 30 51 34 138 l4 96 53 24 c69 32 158 42 281 32 141 -11 184 -27 330
-119 71 -45 188 -118 259 -162 153 -94 293 -193 465 -331 69 -55 161 -119 205
-143 44 -24 98 -61 120 -82 22 -21 55 -46 73 -56 48 -24 156 -45 234 -45 60 0
71 3 98 28 61 54 46 151 -46 299 -119 191 -240 317 -599 627 -319 275 -361
310 -428 355 -109 74 -207 203 -207 273 0 36 38 61 121 78 94 20 182 7 419
-60 258 -74 337 -84 390 -48 90 60 91 195 3 242 -15 8 -44 31 -63 51 -82 86
-279 181 -410 197 -100 13 -122 24 -210 103 -90 82 -146 108 -350 169 -375
110 -452 122 -565 87 -33 -10 -105 -21 -160 -25 -95 -5 -280 6 -293 18 -10 11
31 34 153 86 234 101 416 219 555 361 82 83 166 214 249 390 81 170 222 609
290 902 29 127 44 145 261 317 187 148 395 368 453 478 70 132 172 419 198
552 17 88 18 584 1 623 -25 59 -190 241 -267 297 -43 30 -107 79 -144 107
-136 108 -165 124 -234 133 -35 4 -75 13 -87 20 -13 7 -78 65 -145 129 -88 84
-147 131 -215 171 -52 30 -106 65 -121 77 -32 27 -123 70 -230 107 -91 32
-225 110 -241 139 -15 29 -3 340 17 432 26 121 76 212 249 450 186 257 246
531 178 816 -24 99 -51 143 -159 260 -48 52 -100 113 -114 135 -14 21 -47 73
-75 114 l-49 74 3 151 3 151 -45 114 c-24 63 -66 185 -91 270 -100 331 -164
408 -375 445 -103 19 -422 28 -505 15z m506 -101 c103 -26 171 -59 197 -96 33
-46 99 -185 116 -242 9 -30 16 -84 16 -119 0 -59 -3 -67 -32 -96 -44 -43 -195
-133 -266 -158 -48 -17 -76 -19 -177 -16 -108 3 -126 6 -178 31 -66 33 -97 72
-127 163 -23 68 -41 90 -66 80 -17 -6 -16 -46 2 -128 5 -22 3 -28 -10 -28 -26
0 -56 80 -66 173 -9 87 -17 117 -31 117 -12 0 -17 -31 -22 -136 -5 -106 -13
-129 -33 -92 -19 36 -32 103 -35 171 -1 31 -6 57 -10 57 -15 0 -31 -113 -24
-169 17 -137 85 -236 184 -265 28 -8 93 -37 146 -65 53 -28 120 -58 149 -67
29 -9 64 -25 77 -35 24 -19 24 -20 5 -34 -11 -8 -41 -15 -67 -15 -57 0 -102
-15 -97 -33 2 -6 31 -26 64 -43 49 -26 61 -37 72 -70 18 -53 52 -86 132 -128
37 -20 75 -47 83 -60 9 -13 65 -49 125 -80 118 -60 143 -79 124 -98 -28 -28
-166 21 -352 122 -30 17 -89 37 -130 45 -97 20 -120 30 -120 54 0 15 10 23 33
29 23 6 33 15 35 31 3 19 -22 49 -125 150 -70 69 -157 146 -193 171 -196 137
-270 261 -270 452 0 54 6 70 54 156 72 129 100 160 173 194 78 37 134 36 143
-2 3 -15 14 -26 25 -28 20 -2 29 3 114 62 97 68 214 82 362 45z m332 -649
c-11 -41 -78 -74 -90 -44 -9 24 63 90 82 74 7 -6 11 -19 8 -30z m-1603 -91 c0
-5 -24 -21 -52 -34 -67 -30 -158 -56 -158 -46 0 10 85 57 137 76 47 17 73 18
73 4z m-1422 -6 c-10 -2 -28 -2 -40 0 -13 2 -5 4 17 4 22 1 32 -1 23 -4z m190
-61 c2 -12 -1 -22 -7 -22 -13 0 -32 35 -24 44 12 12 28 0 31 -22z m2782 -10
c0 -27 -65 -132 -105 -169 -37 -35 -75 -42 -94 -19 -10 11 -6 21 19 49 19 22
30 46 30 64 0 34 20 55 70 77 49 21 80 20 80 -2z m-1352 1 c-10 -2 -28 -2 -40
0 -13 2 -5 4 17 4 22 1 32 -1 23 -4z m-121 -28 c9 -25 -25 -53 -78 -64 -62
-14 -146 -14 -154 -1 -8 13 35 39 102 60 73 24 122 25 130 5z m1155 -4 c13
-11 41 -22 61 -26 60 -12 43 -45 -22 -45 -35 0 -121 25 -145 43 -12 9 -17 20
-13 31 9 24 87 22 119 -3z m-2589 -20 c76 -18 59 -38 -44 -53 -211 -29 -319
-67 -406 -142 -51 -44 -103 -144 -103 -198 0 -51 15 -49 76 8 78 74 180 141
252 165 206 70 498 -18 565 -170 16 -38 18 -57 12 -136 -5 -76 -4 -93 9 -104
13 -11 20 -9 43 18 15 17 31 31 35 31 16 0 7 -66 -32 -218 -22 -86 -42 -183
-46 -215 -11 -96 -30 -111 -220 -177 -105 -37 -133 -42 -234 -47 -188 -8 -321
31 -421 124 -79 74 -117 163 -143 341 -18 119 -40 158 -100 176 -17 6 -18 13
-12 71 4 35 19 104 33 152 25 81 29 122 21 212 -3 30 1 37 29 53 17 11 62 24
100 29 37 6 115 25 173 44 58 19 114 36 125 38 37 8 250 7 288 -2z m871 -57
c27 -11 18 -33 -24 -54 -36 -19 -90 -27 -90 -14 0 18 26 48 53 59 37 17 40 17
61 9z m-565 -86 c25 -18 84 -63 131 -101 47 -39 109 -85 137 -104 36 -23 62
-50 82 -85 l29 -51 7 59 c15 144 35 154 81 41 18 -42 53 -105 78 -139 25 -34
46 -72 46 -84 0 -32 16 -70 40 -94 31 -31 40 -24 40 29 0 71 21 77 53 15 22
-43 70 -81 147 -118 57 -27 76 -31 150 -31 75 0 94 4 159 34 158 71 384 47
537 -56 33 -22 77 -49 99 -61 22 -11 97 -78 167 -149 114 -115 132 -139 168
-216 22 -47 52 -95 67 -106 36 -29 117 -27 224 4 158 46 220 82 277 164 48 68
72 86 139 102 66 16 109 39 176 93 30 25 58 46 61 46 31 0 -40 -134 -111 -211
-130 -140 -417 -366 -538 -424 -38 -18 -134 -55 -212 -83 -166 -60 -228 -89
-305 -147 -111 -83 -384 -200 -548 -236 -47 -10 -123 -32 -170 -49 -106 -39
-272 -80 -325 -80 -22 0 -62 7 -88 15 -78 24 -153 -1 -443 -148 -82 -42 -183
-87 -225 -100 -51 -17 -107 -46 -172 -90 -78 -54 -116 -72 -199 -97 -57 -17
-164 -53 -238 -80 -166 -59 -207 -72 -338 -105 -198 -49 -302 -101 -302 -150
0 -13 5 -27 10 -30 16 -10 12 -52 -6 -59 -9 -3 -26 -6 -39 -6 -13 0 -74 -34
-137 -77 -66 -44 -197 -117 -317 -175 -112 -54 -216 -107 -231 -118 -26 -19
-28 -25 -32 -112 -7 -143 -35 -178 -141 -178 -60 0 -111 23 -142 64 -18 25
-20 42 -20 164 0 125 2 140 23 174 12 20 29 59 38 87 11 37 31 69 76 117 83
88 135 118 191 110 86 -13 240 51 295 122 31 40 141 130 262 213 51 34 122 93
158 130 37 37 83 74 103 82 47 19 110 76 135 122 25 48 13 55 -96 55 -123 0
-250 40 -258 81 -2 13 73 152 113 207 32 44 108 25 186 -46 52 -46 85 -46 179
3 78 42 110 74 110 113 0 63 -65 77 -211 47 -73 -16 -95 -11 -84 17 9 22 55
41 199 82 171 49 216 73 216 116 0 29 -24 37 -179 59 -78 12 -157 27 -176 35
-50 21 -118 88 -201 199 -93 124 -113 162 -130 256 -24 136 -15 345 15 327 4
-3 18 -34 31 -68 12 -35 47 -112 77 -172 111 -221 167 -287 297 -352 91 -44
160 -63 266 -70 206 -15 441 67 593 206 71 65 99 121 91 181 -4 33 1 65 23
129 25 75 28 99 28 211 0 121 -1 127 -28 166 -15 22 -43 74 -61 114 -17 41
-41 92 -53 114 -29 56 -100 134 -128 141 -25 6 -39 29 -29 46 9 15 52 1 103
-34z m1579 -15 c2 -8 -6 -13 -22 -13 -26 0 -40 12 -29 24 11 11 46 2 51 -11z
m-2638 -91 c0 -23 -19 -42 -42 -42 -12 0 -18 8 -18 23 0 30 7 37 37 37 15 0
23 -6 23 -18z m2303 -36 c67 -28 188 -159 172 -186 -3 -5 -24 -10 -46 -10 -31
0 -47 7 -70 29 -16 16 -29 39 -29 50 0 51 -87 51 -145 0 -39 -34 -56 -83 -48
-134 7 -42 1 -43 -91 -19 -61 16 -148 15 -283 -2 l-53 -7 -16 39 c-9 22 -17
54 -18 73 -1 31 4 38 39 58 22 12 82 32 132 44 88 20 94 21 119 4 34 -22 50
-14 58 28 4 20 12 38 19 40 28 12 229 7 260 -7z m515 -2 c53 -37 3 -93 -62
-68 -23 9 -19 50 6 68 12 9 25 16 28 16 3 0 16 -7 28 -16z m408 -327 c72 -37
106 -71 102 -105 -4 -38 -40 -34 -114 15 -57 37 -62 38 -154 39 -121 2 -116 0
-94 25 56 63 166 74 260 26z m-336 -152 c7 -9 10 -18 7 -21 -10 -11 -37 5 -37
21 0 19 14 19 30 0z m230 -15 c0 -13 -37 -13 -45 0 -3 6 -3 15 0 20 7 12 45
-5 45 -20z m-2826 -461 c25 -20 35 -49 18 -49 -11 0 -92 58 -92 65 0 13 50 3
74 -16z m-784 2 c0 -10 -86 -85 -176 -154 -81 -61 -96 -101 -114 -297 -13
-149 -13 -465 0 -512 17 -58 52 -93 122 -118 68 -24 98 -45 98 -67 0 -7 -11
-36 -25 -64 -14 -28 -29 -79 -34 -114 -5 -43 -16 -77 -34 -104 -15 -22 -32
-64 -38 -93 -14 -66 -25 -88 -45 -88 -8 0 -35 -19 -60 -42 -37 -34 -47 -39
-55 -27 -14 22 -11 30 26 65 19 18 35 42 35 55 0 14 -24 44 -66 85 l-66 63 8
93 c5 51 7 233 6 403 -4 336 4 430 43 547 45 133 121 223 270 320 90 58 105
65 105 49z m4670 -40 c0 -21 -94 -165 -190 -291 -216 -283 -352 -395 -805
-656 -283 -164 -340 -192 -488 -245 -315 -113 -432 -168 -407 -193 8 -8 30 -4
88 17 42 16 169 61 282 101 113 40 243 90 289 110 59 27 86 35 94 27 14 -14
-13 -44 -65 -73 -21 -12 -38 -25 -38 -30 0 -56 385 190 590 378 82 75 156 124
189 124 33 0 26 -37 -23 -122 -92 -163 -254 -368 -418 -531 -114 -112 -119
-120 -116 -155 2 -25 8 -38 20 -40 27 -5 173 150 268 283 105 149 186 237 214
233 30 -4 32 -73 6 -168 -11 -41 -38 -142 -59 -225 -50 -193 -50 -192 -115
-265 -31 -34 -56 -71 -56 -81 0 -23 28 -25 56 -4 21 16 54 20 54 7 0 -5 -16
-35 -37 -68 -92 -149 -91 -182 3 -81 85 91 160 241 178 353 15 97 24 115 42
89 18 -25 53 -14 118 39 91 74 156 96 164 55 2 -12 -14 -23 -53 -39 -82 -33
-167 -121 -192 -199 l-20 -60 28 20 c16 11 31 25 35 30 11 18 86 69 102 69 21
0 10 -35 -38 -116 -37 -64 -51 -114 -32 -114 5 0 35 20 66 45 32 25 62 45 67
45 17 0 9 -38 -21 -102 -46 -96 -40 -113 34 -96 74 17 139 -11 149 -61 4 -17
15 -44 26 -59 10 -15 22 -44 26 -66 5 -29 21 -54 68 -102 36 -36 75 -66 92
-70 48 -12 182 13 252 46 60 29 65 30 192 28 186 -4 197 18 58 114 -126 89
-162 122 -154 143 13 33 93 15 230 -53 118 -58 290 -165 316 -196 15 -18 55
-396 46 -442 -3 -18 -10 -36 -15 -39 -5 -3 -28 20 -50 50 -70 95 -138 117
-226 75 -87 -43 -63 -81 57 -91 99 -9 116 -22 158 -123 29 -69 54 -202 46
-241 -2 -11 -6 -32 -10 -47 -3 -16 -12 -28 -19 -28 -15 0 -66 93 -66 121 0 55
-31 61 -149 29 -90 -25 -146 -53 -166 -83 -8 -12 -22 -53 -32 -90 -21 -81 -14
-98 45 -110 45 -9 67 -29 58 -52 -8 -23 -51 -18 -109 12 -42 22 -69 27 -143
31 -58 3 -106 0 -130 -8 -45 -15 -113 -60 -114 -75 0 -21 96 -128 134 -149 54
-30 64 -48 43 -80 -29 -43 -60 -28 -82 38 -11 34 -53 62 -70 45 -6 -6 -3 -47
10 -117 30 -174 36 -159 -79 -219 l-100 -52 -46 43 c-51 48 -89 70 -136 80
-53 12 -57 -6 -28 -125 35 -143 41 -231 20 -301 -16 -56 -60 -108 -77 -91 -9
10 -84 240 -105 323 -17 71 -49 136 -70 144 -15 6 -69 -36 -86 -67 -6 -11 -14
-73 -19 -136 -5 -64 -15 -143 -24 -176 -19 -74 -71 -185 -118 -254 -20 -29
-39 -69 -42 -89 -19 -124 -31 -137 -98 -102 -39 20 -49 22 -71 12 -16 -7 -26
-20 -26 -32 0 -12 -21 -43 -46 -70 -25 -27 -50 -65 -55 -87 -26 -93 -90 -163
-152 -163 -31 0 -71 35 -99 88 -12 22 -24 32 -41 32 -42 0 -73 -50 -88 -142
-5 -33 -16 -73 -24 -89 -20 -38 -82 -73 -204 -114 -113 -38 -151 -58 -195
-104 -41 -43 -66 -41 -66 3 0 19 -4 38 -10 41 -17 10 -51 -15 -62 -46 -19 -55
-57 -30 -58 39 0 26 -10 27 -52 6 -20 -10 -76 -19 -157 -24 -69 -5 -168 -12
-218 -16 l-93 -7 0 57 c0 50 4 61 28 86 36 36 63 43 312 86 373 63 393 74 750
415 240 229 296 289 321 344 24 52 24 139 1 185 -20 40 -97 102 -121 98 -9 -2
-21 -23 -29 -53 -22 -83 -34 -105 -63 -120 -40 -21 -129 -18 -199 5 -38 13
-71 18 -88 14 -15 -4 -56 -36 -92 -71 -36 -36 -73 -69 -84 -75 -17 -9 -18 -7
-14 17 8 38 -12 41 -78 11 -72 -33 -92 -33 -140 3 -134 98 -130 154 14 229 80
42 332 130 511 178 113 31 133 41 185 88 37 34 38 37 22 55 -13 15 -15 31 -10
89 l7 71 -34 20 c-36 22 -96 46 -141 55 -36 8 -35 26 2 59 33 30 34 35 20 57
-6 10 -24 14 -56 13 -26 -1 -59 4 -73 12 -37 19 -173 161 -209 219 -29 45 -30
51 -17 75 24 47 134 111 190 111 14 0 56 -16 92 -35 36 -19 74 -35 83 -35 10
0 45 -25 79 -55 75 -67 109 -85 159 -85 74 0 99 -16 138 -90 29 -56 42 -71 77
-86 23 -11 76 -44 117 -75 41 -31 89 -63 106 -72 l32 -16 82 59 c46 33 90 60
99 60 20 0 100 53 212 141 46 36 143 105 216 152 144 95 303 239 303 276 0 18
-6 21 -45 21 -25 0 -45 4 -45 8 0 5 13 29 30 53 33 51 86 91 180 139 56 29 74
33 130 32 69 -2 130 23 130 52 0 48 -235 43 -347 -9 -123 -56 -204 -139 -248
-255 -32 -83 -64 -114 -205 -198 -85 -51 -100 -57 -151 -57 -50 0 -63 5 -126
46 -65 44 -145 89 -158 89 -16 0 2 -36 55 -110 64 -88 69 -109 45 -168 -39
-91 -88 -105 -150 -42 -79 81 -266 194 -365 220 -25 6 -85 29 -133 51 -127 57
-249 91 -333 92 -61 1 -79 -3 -139 -32 -84 -42 -199 -150 -210 -199 -11 -51
30 -121 141 -242 l95 -105 -6 -105 c-16 -246 -35 -285 -144 -304 -81 -14 -291
-129 -353 -193 -49 -50 -68 -99 -68 -173 0 -88 25 -132 98 -170 31 -16 69 -39
83 -51 43 -35 132 -49 364 -58 121 -5 228 -12 238 -16 29 -12 20 -43 -20 -69
-21 -13 -92 -76 -157 -140 -66 -64 -144 -133 -175 -153 -81 -54 -195 -89 -367
-113 -185 -25 -258 -43 -306 -77 -50 -34 -126 -116 -138 -149 -14 -36 3 -87
46 -141 75 -92 206 -121 466 -103 195 14 295 32 414 75 53 19 100 35 105 35 5
0 9 -10 9 -22 0 -49 -144 -155 -384 -284 -150 -79 -195 -109 -184 -119 10 -10
114 23 205 65 135 63 304 180 447 310 89 81 181 140 218 140 15 0 28 -4 28 -8
0 -42 -209 -233 -369 -337 -177 -116 -457 -256 -656 -329 -131 -48 -165 -63
-165 -76 0 -17 85 -11 192 15 114 28 128 29 128 15 0 -28 -130 -79 -450 -177
-220 -67 -270 -86 -270 -103 0 -48 218 7 580 145 206 79 279 100 292 87 25
-25 -25 -144 -53 -127 -18 12 -10 57 11 62 11 3 20 10 20 15 0 14 -31 2 -210
-82 -325 -154 -620 -260 -721 -260 -46 0 -101 -19 -96 -34 2 -6 18 -17 35 -25
18 -8 32 -20 32 -27 0 -28 -139 -45 -194 -24 -35 13 -34 45 3 64 43 22 133
127 166 193 54 105 46 198 -23 281 l-27 33 -228 -60 c-250 -66 -297 -74 -528
-96 -213 -20 -214 -20 -305 23 -43 22 -108 49 -144 60 -41 14 -87 40 -124 69
-32 27 -75 57 -96 68 -20 11 -55 35 -78 54 -48 39 -262 267 -262 279 0 13 172
114 370 217 188 97 234 128 208 137 -26 10 -107 -19 -204 -75 -215 -122 -404
-198 -455 -182 -18 6 -20 12 -14 43 4 20 15 53 25 73 19 37 73 89 92 89 6 0
74 31 152 70 78 38 235 106 351 150 210 81 255 102 255 120 0 17 -38 11 -172
-26 -129 -36 -130 -36 -164 -18 -30 16 -40 17 -91 6 -74 -15 -208 -79 -258
-123 -21 -19 -44 -49 -52 -67 -9 -22 -19 -32 -31 -30 -31 6 -24 47 27 162 28
63 51 119 51 125 0 20 75 94 230 226 186 159 262 237 360 370 90 121 157 201
270 320 47 50 116 127 154 173 74 89 161 168 259 233 222 149 262 210 87 132
-105 -47 -130 -54 -130 -37 0 29 122 138 197 177 83 43 133 82 133 104 0 21
-47 9 -148 -38 -157 -73 -274 -175 -372 -325 -48 -73 -128 -230 -144 -281 -11
-34 -24 -28 -32 15 -21 119 -69 89 -145 -93 -50 -122 -147 -272 -223 -343 -51
-48 -58 -52 -78 -41 -13 7 -39 15 -58 19 -30 5 -34 9 -31 30 2 14 4 75 5 135
0 96 -3 116 -22 153 -23 43 -41 52 -60 29 -8 -9 -8 -41 0 -111 18 -158 -10
-381 -56 -451 -43 -66 -45 -2 -6 180 18 84 21 124 18 245 -4 143 -5 147 -54
289 -63 186 -94 212 -102 87 -3 -49 1 -74 16 -110 20 -44 35 -130 47 -265 3
-35 2 -62 -1 -58 -3 3 -15 45 -25 94 -40 183 -72 246 -115 229 -21 -8 -17 -51
16 -188 17 -67 30 -145 30 -173 -1 -47 -2 -49 -16 -30 -8 11 -29 46 -46 77
-32 61 -93 138 -109 138 -5 0 -9 -15 -9 -32 -1 -60 -18 -112 -46 -134 -24 -20
-26 -25 -19 -72 5 -42 4 -52 -11 -60 -11 -6 -20 -27 -23 -53 -6 -43 -6 -44
-48 -47 -37 -3 -43 -6 -43 -25 0 -13 22 -97 49 -189 28 -91 53 -183 57 -205
l7 -38 -23 20 c-13 11 -43 51 -68 89 -67 103 -109 146 -143 146 -45 0 -44 -18
3 -68 73 -78 169 -258 168 -315 -1 -19 -7 -15 -45 26 -25 27 -49 66 -55 88 -8
30 -20 44 -54 64 -55 32 -77 32 -42 0 14 -13 26 -35 26 -49 0 -13 14 -59 30
-100 17 -42 35 -100 40 -129 13 -76 22 -183 16 -176 -3 3 -22 58 -41 122 -20
65 -41 129 -47 142 -20 45 -31 28 -24 -37 17 -157 18 -195 7 -217 -7 -12 -20
-21 -29 -19 -14 3 -18 19 -22 85 -5 78 -20 116 -37 99 -5 -4 -10 -40 -13 -79
l-5 -72 -150 -49 c-148 -49 -150 -50 -112 -59 26 -6 41 -17 47 -33 11 -28 39
-44 78 -44 16 0 69 -12 118 -26 124 -36 140 -52 79 -81 -61 -29 -37 -38 93
-36 67 2 122 -1 122 -5 0 -10 -81 -62 -96 -62 -16 0 -64 -57 -64 -76 0 -17 4
-17 47 -2 28 10 38 9 79 -11 33 -17 73 -25 140 -31 131 -9 140 -26 30 -54 -32
-9 -61 -18 -64 -21 -3 -2 7 -22 22 -43 15 -22 26 -46 24 -53 -2 -11 10 -13 60
-11 l62 4 0 -41 c0 -36 4 -43 28 -52 15 -6 41 -8 59 -6 23 4 40 -1 65 -19 24
-19 43 -24 73 -22 l40 2 0 -39 c0 -38 2 -40 34 -43 18 -2 38 1 44 7 21 21 52
11 125 -39 73 -50 74 -50 153 -50 55 0 90 -5 112 -16 27 -15 55 -16 202 -11
203 7 320 25 435 67 124 46 281 82 343 78 45 -3 52 -6 55 -25 5 -35 -24 -79
-70 -106 -24 -14 -64 -48 -89 -76 -29 -32 -55 -51 -69 -51 -14 0 -24 -8 -27
-20 -3 -11 -17 -23 -31 -27 -15 -3 -46 -19 -71 -34 -24 -16 -67 -36 -95 -45
-28 -9 -96 -34 -151 -55 -55 -21 -119 -43 -142 -49 -58 -15 -69 -37 -48 -100
20 -61 79 -145 164 -235 39 -42 84 -104 111 -154 26 -48 61 -98 86 -119 46
-42 198 -124 259 -142 22 -6 128 -15 236 -19 164 -7 203 -12 242 -29 49 -22
65 -50 53 -97 -13 -50 -52 -59 -276 -63 -252 -5 -635 13 -710 32 -30 8 -89 31
-130 50 -41 20 -81 36 -90 36 -8 0 -26 14 -40 31 -22 26 -35 32 -88 38 -37 4
-69 15 -81 25 -20 19 -67 130 -92 216 -15 55 -35 78 -73 82 -44 5 -53 -18 -38
-104 32 -184 180 -530 279 -653 64 -78 269 -246 357 -290 52 -27 81 -35 121
-35 99 0 194 -51 215 -115 15 -45 -4 -78 -58 -101 -43 -18 -58 -16 -177 26
-49 17 -130 37 -180 45 -117 18 -153 31 -315 119 -74 41 -164 88 -200 105 -67
33 -110 66 -110 85 0 25 -64 143 -93 174 -48 51 -122 85 -166 78 -77 -13 -74
-14 -104 45 -20 40 -30 80 -37 150 -27 253 -48 361 -75 389 -13 12 -23 11 -77
-7 -35 -12 -123 -48 -197 -80 -109 -48 -138 -65 -158 -93 -34 -50 -62 -148
-69 -243 -9 -130 -26 -157 -98 -157 -47 0 -85 34 -124 112 -44 88 -62 168 -63
273 0 101 18 181 60 270 38 80 75 129 204 272 170 190 287 285 389 318 78 25
110 49 149 104 21 32 51 60 82 77 44 24 48 28 33 42 -23 24 -166 28 -244 8
-93 -24 -202 -107 -202 -154 0 -27 -75 -135 -125 -181 -49 -45 -59 -45 -102 1
-32 35 -93 139 -93 160 0 79 125 186 279 239 66 23 101 45 101 63 0 20 -55 43
-135 56 -38 7 -86 19 -105 27 l-35 14 28 24 c15 14 60 34 100 45 101 29 157
57 157 76 0 15 -12 16 -107 11 -181 -9 -381 -77 -411 -140 -7 -15 -37 -45 -67
-67 -29 -21 -62 -52 -73 -67 -28 -40 -84 -155 -117 -242 l-29 -73 -53 58 c-29
33 -70 79 -91 103 l-37 44 0 108 c0 95 -2 110 -19 122 -19 14 -19 15 3 51 27
42 38 137 22 179 -14 36 -53 36 -88 -1 -14 -15 -49 -74 -78 -133 -50 -99 -79
-139 -91 -126 -6 6 15 78 43 152 42 106 35 135 -33 135 -64 0 -127 -50 -159
-127 -10 -24 -20 -33 -32 -31 -31 6 -47 57 -48 148 0 79 3 90 34 145 116 205
121 223 56 211 -30 -6 -35 -4 -35 13 0 11 14 29 30 41 32 23 40 57 15 66 -8 4
-25 -1 -38 -10 -65 -47 -68 -49 -78 -39 -8 8 -4 26 11 59 34 76 50 125 44 135
-9 16 -42 -10 -85 -67 -52 -68 -67 -61 -50 22 14 73 30 90 90 97 66 8 358 154
395 197 14 17 26 38 26 46 0 8 11 25 23 37 49 46 62 145 26 191 -11 15 -40 36
-62 47 -56 28 -77 48 -70 65 3 8 36 33 74 55 61 35 89 62 89 85 0 3 -18 4 -40
1 -85 -11 -55 30 116 158 134 101 191 160 173 181 -6 8 -20 14 -30 14 -11 0
-19 4 -19 8 0 17 37 41 133 87 54 26 96 52 94 58 -8 24 -58 50 -104 54 -36 4
-68 -2 -123 -22 -97 -34 -211 -68 -216 -63 -2 2 25 38 59 79 34 42 76 96 94
121 17 25 57 64 90 86 32 22 77 60 101 85 65 71 54 123 -18 82 -39 -22 -58
-18 -65 14 -8 36 -27 54 -49 45 -23 -9 -89 -112 -120 -188 -34 -85 -91 -179
-237 -391 -227 -330 -325 -506 -384 -695 -20 -63 -57 -178 -82 -255 -117 -368
-151 -633 -105 -826 25 -102 51 -143 174 -277 166 -180 330 -325 523 -463 222
-159 328 -214 445 -232 47 -8 95 -19 107 -26 38 -20 29 -59 -32 -136 -50 -62
-74 -108 -104 -193 -37 -107 -73 -165 -146 -238 -75 -76 -179 -144 -280 -185
-89 -35 -283 -76 -400 -85 -74 -5 -78 -4 -55 10 l25 14 -29 12 c-16 6 -77 15
-135 21 -119 10 -225 38 -264 70 -42 32 -34 43 28 36 30 -3 57 -1 60 4 7 10
-28 45 -80 80 -40 27 -47 52 -12 44 12 -3 51 -12 87 -20 107 -24 308 -37 507
-33 179 3 191 5 243 30 l55 27 -148 -6 c-109 -5 -147 -3 -147 6 0 15 28 26
129 51 89 22 132 41 203 89 24 16 104 61 178 101 138 73 200 114 200 131 0 20
-59 6 -192 -46 -172 -68 -295 -101 -592 -160 -127 -25 -262 -57 -301 -70 -39
-14 -88 -25 -108 -25 -57 0 -130 33 -220 98 -85 61 -127 87 -127 77 0 -3 16
-38 36 -77 45 -90 50 -151 15 -179 -40 -33 -55 -21 -63 48 -7 61 -54 186 -119
316 -74 146 -149 350 -260 705 -33 106 -92 268 -131 360 -125 296 -127 310
-149 797 -16 358 1 587 66 893 25 118 34 148 93 307 42 113 75 276 62 309 -5
14 -14 26 -20 26 -26 0 -20 57 25 207 51 170 91 258 167 362 71 96 96 154 203
471 184 543 274 720 366 720 57 0 63 -16 23 -68 -40 -52 -41 -60 -13 -96 58
-74 164 -73 259 4 34 27 73 30 78 7 10 -48 -114 -250 -173 -282 -41 -21 -115
-103 -167 -185 -148 -229 -170 -270 -183 -345 -7 -41 -21 -85 -31 -100 -11
-14 -60 -53 -109 -88 -103 -71 -125 -105 -170 -262 -39 -135 -41 -171 -15
-246 17 -48 23 -86 23 -154 0 -115 -11 -167 -88 -405 -62 -194 -95 -341 -95
-429 0 -76 27 -219 64 -336 18 -60 43 -142 55 -181 25 -86 43 -106 65 -72 65
102 128 486 125 763 l-3 170 61 130 c33 72 66 147 72 167 7 21 33 60 58 88
l45 50 -41 0 c-32 0 -46 -6 -66 -29 -28 -30 -101 -68 -112 -58 -3 4 5 27 18
52 l24 46 -21 17 c-12 9 -30 22 -40 28 -17 10 -19 24 -18 145 1 74 7 147 13
163 7 16 32 60 57 97 24 37 77 130 116 206 39 76 94 172 122 213 28 41 71 115
96 164 49 97 72 119 68 65 -2 -26 1 -34 17 -37 29 -5 45 -31 45 -70 0 -18 4
-41 10 -51 24 -46 71 -32 178 56 40 33 102 75 139 93 145 73 253 227 253 360
0 71 29 146 91 236 42 62 89 93 229 155 74 32 135 66 158 87 44 42 149 92 192
92 41 0 133 -47 124 -63 -4 -7 -16 -22 -27 -35 l-21 -22 -31 30 -31 30 -44
-15 c-57 -20 -127 -61 -162 -93 -47 -44 -70 -121 -76 -258 -7 -186 26 -323 96
-397 64 -68 231 -127 356 -127 147 1 271 59 333 158 49 78 115 145 200 203 40
27 105 77 145 110 40 34 104 80 143 102 76 45 148 112 180 167 27 47 112 102
210 136 64 23 96 29 165 28 47 0 104 -6 127 -14 l42 -14 173 86 c95 48 241
114 323 148 83 34 200 88 260 119 226 120 533 223 910 306 180 39 507 148 675
225 58 26 132 55 165 65 177 50 491 238 874 522 233 174 271 195 271 154z
m-4828 -501 c-3 -26 -26 -56 -55 -71 -27 -15 -38 -2 -26 29 24 63 87 96 81 42z
m454 -2 c7 -11 -29 -48 -47 -48 -13 0 -22 27 -15 45 6 18 52 20 62 3z m74
-120 c0 -19 -31 -48 -52 -48 -24 0 -23 15 2 40 22 22 50 27 50 8z m-1163 -728
c79 -10 133 -32 133 -55 0 -29 -31 -32 -137 -13 -210 38 -230 58 -78 76 6 1
43 -3 82 -8z m5506 -247 c-7 -2 -21 -2 -30 0 -10 3 -4 5 12 5 17 0 24 -2 18
-5z m196 -42 c19 -12 5 -30 -35 -47 -43 -18 -98 -18 -113 0 -15 18 9 33 72 46
57 11 60 11 76 1z m78 -116 c-26 -23 -67 -34 -67 -18 0 18 36 43 64 43 l31 -1
-28 -24z m114 -101 c16 -19 -2 -34 -43 -34 -35 0 -38 27 -5 40 31 12 33 12 48
-6z m-8685 -75 c43 -6 91 -17 106 -25 48 -25 164 -245 156 -297 -3 -18 -4 -18
-31 3 -36 28 -57 20 -57 -23 0 -18 -6 -41 -13 -51 -13 -18 -17 -18 -101 2 -62
15 -95 18 -117 12 -39 -11 -79 -37 -79 -51 0 -5 23 -33 51 -62 28 -29 57 -64
65 -79 8 -16 36 -39 62 -52 78 -40 99 -72 94 -143 -1 -13 -13 -30 -27 -39 -23
-15 -27 -14 -78 15 -122 69 -357 54 -543 -34 -104 -50 -180 -140 -160 -190 8
-22 45 -18 98 10 40 21 61 25 132 25 202 0 307 -33 404 -127 50 -47 53 -54 47
-85 -23 -113 -52 -168 -88 -168 -13 0 -38 11 -57 25 -76 56 -253 90 -381 74
-151 -19 -247 -63 -305 -141 -58 -78 -98 -144 -138 -228 -57 -118 -52 -122 78
-54 93 49 106 50 202 25 23 -6 109 -15 190 -20 153 -9 204 -22 204 -51 0 -19
-45 -76 -134 -169 l-61 -63 50 7 c28 3 88 20 135 37 47 16 103 31 125 32 35 1
40 -2 43 -23 5 -36 -17 -70 -65 -98 -62 -36 -121 -51 -238 -63 -161 -15 -281
-73 -274 -132 5 -32 -8 -48 -37 -48 -34 0 -84 -27 -84 -45 0 -18 103 -96 151
-115 49 -19 69 -39 69 -70 0 -38 15 -52 115 -113 122 -75 148 -108 153 -197 6
-97 -21 -205 -77 -314 -72 -142 -174 -271 -423 -540 -153 -165 -193 -219 -218
-292 -43 -123 -87 -435 -62 -434 4 0 67 117 141 259 131 254 198 357 220 336
7 -7 2 -32 -14 -80 -51 -144 -95 -399 -95 -550 0 -107 7 -137 29 -133 25 5 58
80 82 187 58 262 84 357 110 407 16 30 43 80 59 112 32 60 77 118 86 110 2 -3
-17 -49 -42 -102 -55 -113 -70 -200 -39 -222 26 -19 44 -7 175 121 178 173
213 191 208 108 -4 -63 6 -64 151 -18 65 20 133 35 162 35 47 0 298 -49 366
-71 45 -14 94 -73 142 -169 45 -90 50 -117 24 -127 -32 -13 -172 25 -305 82
-73 32 -150 60 -170 63 -33 4 -38 2 -38 -15 0 -26 24 -47 78 -68 48 -20 71
-49 46 -59 -9 -3 -80 -13 -157 -22 -156 -17 -256 -46 -314 -90 -20 -15 -63
-65 -96 -111 -34 -45 -65 -83 -69 -83 -12 0 -10 -38 3 -62 13 -25 67 -48 112
-48 19 0 60 14 93 32 82 44 265 100 282 85 7 -6 72 -75 144 -154 l131 -144 -6
-207 c-7 -214 -20 -305 -57 -404 -22 -60 -62 -103 -68 -74 -2 8 4 28 12 44 25
49 46 196 53 363 4 109 3 158 -5 163 -16 10 -28 -19 -47 -115 -20 -100 -30
-122 -45 -99 -17 25 -30 82 -30 130 0 69 -9 92 -34 88 -29 -4 -32 -41 -11
-157 22 -119 17 -200 -25 -385 -41 -187 -42 -222 -7 -248 15 -11 27 -27 27
-35 0 -13 -9 -15 -49 -10 -39 5 -52 2 -65 -12 -9 -10 -16 -22 -16 -27 0 -24
-107 -104 -140 -104 -22 0 -8 33 33 78 24 26 53 61 65 78 42 62 82 215 107
411 7 51 6 53 -30 86 -36 33 -38 38 -46 123 -11 113 -13 121 -60 294 -43 155
-61 193 -87 188 -24 -5 -30 -39 -31 -173 l-1 -121 -65 4 c-43 3 -70 0 -80 -8
-20 -16 -19 -80 1 -303 11 -107 14 -181 8 -186 -5 -5 -43 -21 -84 -36 -160
-60 -216 -99 -256 -179 -27 -53 -85 -105 -141 -126 -29 -11 -102 -29 -161 -39
-150 -27 -184 -45 -150 -79 20 -20 136 -14 246 13 57 14 117 25 135 25 l31 0
-33 -34 c-70 -72 -231 -111 -363 -87 -129 23 -172 25 -187 7 -12 -14 -11 -19
4 -37 11 -11 38 -28 62 -39 24 -10 43 -24 43 -29 0 -15 4 -15 -162 24 -167 39
-196 54 -294 157 -67 69 -99 125 -135 233 l-23 70 3 620 c3 769 15 1194 36
1296 11 50 14 95 10 139 -16 164 -11 199 69 523 97 388 188 668 267 823 38 73
69 151 85 212 14 53 48 142 75 197 36 73 56 131 74 215 13 63 33 140 43 170
11 30 28 93 38 138 12 59 29 102 56 145 21 34 55 96 74 137 130 273 188 383
234 443 73 96 156 148 335 208 271 91 405 145 405 165 0 24 -24 29 -159 34
-143 5 -168 15 -111 45 64 33 134 40 246 24z m2012 -76 c-4 -20 -35 -30 -50
-15 -15 15 0 32 28 32 19 0 25 -5 22 -17z m-194 -149 c42 -16 -10 -64 -107
-99 -50 -19 -73 -12 -62 17 8 21 74 67 111 78 38 11 40 11 58 4z m7661 -299
c0 -28 -29 -25 -33 3 -3 19 0 23 15 20 10 -2 18 -12 18 -23z m-9089 -214 c4
-49 3 -91 -4 -110 -14 -41 -103 -154 -113 -144 -4 4 -10 32 -14 61 l-7 53 51
49 51 49 0 74 c0 128 25 106 36 -32z m-352 -160 c3 -4 -3 -16 -13 -25 -15 -14
-24 -15 -40 -6 -35 18 -25 40 20 40 15 0 30 -4 33 -9z m366 -293 c-1 -35 -3
-40 -11 -25 -10 17 -5 67 6 67 3 0 5 -19 5 -42z m-320 -156 c0 -21 -34 -56
-49 -51 -15 6 16 69 34 69 8 0 15 -8 15 -18z m-262 -84 c17 -17 15 -48 -3 -48
-41 0 -78 34 -58 53 11 11 48 8 61 -5z m322 -43 c0 -20 -17 -45 -31 -45 -14 0
-19 49 -8 77 10 27 11 27 25 9 8 -11 14 -29 14 -41z m85 -94 c-32 -90 -62
-138 -78 -122 -7 7 -6 23 2 53 14 45 65 153 85 177 23 29 18 -31 -9 -108z
m9060 44 c10 -24 14 -52 10 -64 -7 -23 -102 -121 -116 -121 -14 0 -10 51 10
122 34 123 66 144 96 63z m-9890 5 c4 -6 -7 -10 -27 -10 -25 0 -29 3 -18 10
19 13 37 13 45 0z m275 0 c0 -5 -14 -10 -31 -10 -17 0 -28 4 -24 10 3 6 17 10
31 10 13 0 24 -4 24 -10z m8922 -361 c3 -16 2 -47 -2 -67 l-7 -37 -17 37 c-19
44 -19 40 -6 72 13 35 27 33 32 -5z m-8463 -174 c-43 -213 -146 -544 -246
-790 -65 -160 -78 -185 -94 -185 -11 0 -7 18 43 184 21 72 43 157 47 191 5 34
22 95 39 136 16 41 32 96 36 123 12 90 127 394 168 443 24 29 27 -6 7 -102z
m2211 45 c-13 -23 -47 -43 -54 -32 -9 14 24 52 45 52 17 0 18 -3 9 -20z
m-2382 -53 c8 -42 -111 -108 -141 -78 -21 21 83 105 123 98 8 -1 16 -10 18
-20z m2432 -31 c0 -7 -33 -49 -72 -92 -109 -118 -145 -165 -167 -216 -10 -25
-47 -76 -80 -113 -39 -43 -65 -81 -72 -107 -6 -22 -26 -63 -44 -90 -19 -27
-37 -66 -40 -86 -4 -20 -17 -74 -31 -119 -19 -64 -34 -92 -64 -125 -57 -59
-67 -44 -46 64 35 174 87 354 125 432 76 155 213 336 255 336 27 0 27 19 -1
32 -37 17 -37 49 -1 62 20 7 37 5 69 -9 l42 -19 56 31 c64 36 71 38 71 19z
m6123 -63 c9 -9 -44 -64 -55 -57 -12 8 -10 38 4 52 13 13 41 16 51 5z m-8063
-67 c0 -44 -9 -66 -26 -66 -17 0 -19 52 -4 81 16 29 30 23 30 -15z m3127 -86
c14 -28 17 -98 5 -118 -26 -40 -70 49 -57 115 7 41 32 42 52 3z m3227 -103
c18 -29 -17 -47 -89 -47 -67 0 -107 18 -83 37 40 34 153 40 172 10z m-3077
-84 c-7 -66 -43 -181 -63 -203 -33 -35 -6 207 28 247 6 7 17 13 26 13 12 0 14
-10 9 -57z m4702 -29 c-22 -27 -113 -74 -143 -74 -25 0 -27 2 -15 17 17 20
126 72 153 73 16 0 17 -2 5 -16z m-430 -85 c17 -50 13 -79 -19 -144 -16 -33
-30 -73 -30 -88 0 -16 -13 -44 -30 -66 -17 -20 -43 -73 -58 -117 -16 -43 -34
-89 -40 -101 -7 -12 -12 -36 -12 -53 0 -36 -19 -77 -48 -103 -11 -10 -23 -35
-27 -55 -10 -52 -62 -146 -112 -202 -42 -47 -133 -97 -153 -85 -21 13 -8 100
40 288 28 107 64 255 80 329 44 197 50 209 128 267 88 64 242 161 258 161 6 0
17 -14 23 -31z m336 -110 c-69 -47 -158 -84 -176 -73 -14 8 2 34 32 50 33 16
124 42 154 43 16 1 15 -3 -10 -20z m-35 -137 c0 -10 -47 -53 -80 -74 -69 -41
-190 -63 -190 -33 0 17 56 47 160 86 77 29 110 35 110 21z m-7990 -162 c10 -5
23 -25 29 -42 23 -73 41 -318 24 -318 -5 0 -48 7 -98 15 -104 18 -266 20 -344
5 -66 -12 -118 -13 -125 -1 -9 15 50 68 122 110 37 21 108 70 157 107 92 69
192 134 208 134 4 0 17 -4 27 -10z m-2130 -127 c-1 -82 -16 -141 -46 -174 -35
-39 -70 -15 -58 39 10 44 85 212 95 212 5 0 9 -35 9 -77z m10108 45 c-8 -24
-55 -48 -123 -62 -63 -13 -68 -13 -50 1 31 24 138 73 158 73 10 0 17 -5 15
-12z m-148 -173 c0 -8 -9 -19 -20 -25 -24 -13 -130 -23 -130 -12 0 9 106 50
133 51 9 1 17 -6 17 -14z m-730 -65 c13 -9 11 -14 -13 -35 -26 -23 -92 -43
-104 -32 -13 13 9 39 49 57 50 23 49 23 68 10z m-4322 -41 c-12 -7 -24 -7 -35
0 -15 9 -12 10 17 10 29 0 32 -1 18 -10z m-2853 -50 c69 -13 80 -21 66 -48
-20 -36 -115 -22 -171 25 -56 48 -39 51 105 23z m6895 -20 c0 -15 -92 -111
-190 -197 -81 -71 -180 -133 -180 -113 0 37 320 321 362 321 4 0 8 -5 8 -11z
m-3920 -28 c0 -22 -15 -35 -30 -26 -7 4 -7 13 0 26 14 25 30 25 30 0z m-3150
-30 l25 -7 -25 -14 c-31 -18 -240 -28 -240 -12 0 15 34 24 115 32 92 9 96 9
125 1z m7235 -11 c3 -5 -8 -16 -24 -24 -38 -20 -110 -36 -116 -26 -9 14 5 37
28 48 28 13 104 15 112 2z m571 -1 c9 -15 -14 -29 -48 -29 -26 0 -37 17 -21
33 11 11 61 8 69 -4z m-566 -119 c28 -19 -30 -56 -108 -70 -157 -28 -159 32
-2 66 70 16 91 16 110 4z m-7041 -69 c14 -9 9 -41 -7 -41 -17 0 -45 27 -38 38
9 14 26 15 45 3z m7250 -20 c23 -15 4 -41 -45 -62 -120 -53 -433 -111 -486
-90 -37 14 -35 29 5 45 36 15 412 103 467 109 19 2 37 4 40 5 3 1 11 -2 19 -7z
m141 -77 c0 -9 -66 -44 -83 -44 -32 0 -15 34 23 46 31 10 60 9 60 -2z m-160
-73 c0 -5 -14 -21 -31 -35 -26 -22 -34 -24 -46 -14 -13 11 -12 15 11 35 27 23
66 31 66 14z m-9625 -47 c29 -29 58 -99 58 -139 0 -22 -10 -59 -22 -83 -25
-49 -23 -55 42 -112 38 -34 47 -48 47 -75 0 -28 -8 -40 -41 -67 -86 -68 -139
-121 -168 -166 -28 -45 -32 -57 -45 -113 -3 -15 -23 -48 -45 -74 -23 -28 -47
-73 -60 -114 -25 -79 -35 -96 -50 -87 -30 19 -2 275 54 499 38 150 154 493
177 522 23 29 31 31 53 9z m9480 -23 c-21 -35 -374 -94 -455 -76 -41 9 -38 32
7 44 40 11 226 29 421 39 18 1 31 -2 27 -7z m-382 -136 c27 -11 20 -24 -19
-31 -40 -7 -191 -1 -200 9 -4 4 -1 14 7 23 11 14 28 16 104 11 49 -2 98 -8
108 -12z m217 -5 c0 -5 -12 -10 -26 -10 -14 0 -23 4 -19 10 3 6 15 10 26 10
10 0 19 -4 19 -10z m-4451 -214 c10 -11 6 -30 -17 -88 -40 -98 -44 -119 -32
-174 12 -54 10 -60 -19 -45 -28 16 -44 83 -38 166 5 82 21 121 56 140 33 18
36 18 50 1z m715 -41 c-1 -15 -73 -48 -90 -41 -14 5 -14 9 -3 22 25 30 95 44
93 19z m2719 -82 c11 -10 -24 -43 -45 -43 -25 0 -23 25 5 38 27 13 32 14 40 5z
m2435 -29 c12 -8 22 -23 22 -33 0 -22 53 -97 89 -128 31 -26 71 -28 156 -8 87
21 178 18 255 -8 128 -44 330 -170 330 -206 0 -7 -12 -24 -26 -38 -23 -22 -31
-25 -72 -20 -26 3 -130 31 -232 62 -102 31 -259 74 -350 96 -91 21 -222 53
-291 69 -127 30 -242 39 -254 20 -14 -22 20 -40 118 -62 79 -17 108 -28 130
-49 36 -36 35 -72 -2 -110 -35 -35 -54 -36 -90 -6 -15 13 -77 49 -137 80 -122
64 -217 131 -245 173 -18 28 -18 29 4 52 64 69 281 130 467 131 80 1 111 -3
128 -15z m-7787 -129 c57 -120 64 -347 15 -496 -31 -94 -44 -179 -27 -179 20
0 50 63 67 140 21 102 28 123 42 128 18 6 15 -128 -6 -230 -10 -49 -16 -88
-13 -88 16 0 52 72 61 120 9 49 41 100 62 100 4 0 8 -33 8 -74 l0 -74 31 -7
c42 -10 46 -29 20 -104 -53 -152 -142 -309 -186 -329 -35 -16 -32 0 9 57 20
27 42 76 54 121 11 41 19 76 18 77 -1 1 -21 -23 -44 -55 -54 -74 -141 -166
-148 -159 -4 3 19 56 50 117 56 112 65 140 46 140 -20 0 -113 -95 -127 -130
-15 -35 -70 -100 -85 -100 -4 0 15 46 42 103 28 56 51 113 52 127 3 23 0 25
-31 22 -29 -3 -33 -1 -27 15 13 30 54 220 61 278 8 59 -4 73 -23 30 -6 -13
-19 -53 -28 -87 -8 -35 -19 -67 -24 -73 -4 -5 -11 -29 -15 -53 -4 -26 -15 -48
-28 -57 -35 -25 -41 -1 -14 57 30 65 43 120 62 269 22 171 42 211 78 159 13
-18 16 -19 27 -5 17 21 8 125 -21 230 -34 128 -34 124 -8 95 12 -14 35 -52 50
-85z m6409 96 c0 -10 -191 -111 -209 -111 -6 0 -11 4 -11 9 0 13 159 94 218
110 1 1 2 -3 2 -8z m658 -78 c3 -17 -5 -25 -32 -37 -41 -17 -76 -77 -76 -130
0 -39 12 -49 69 -60 19 -3 43 -14 53 -23 13 -12 44 -17 120 -21 141 -6 174
-25 86 -47 -44 -11 -59 -29 -34 -38 8 -3 61 -9 118 -13 57 -4 108 -11 114 -16
6 -4 12 -19 12 -32 0 -14 9 -38 21 -54 27 -39 88 -92 105 -92 8 0 16 -8 19
-18 2 -12 17 -22 36 -25 30 -6 32 -9 26 -36 -6 -28 -4 -31 27 -39 49 -12 48
-42 -1 -94 -23 -23 -41 -45 -41 -48 0 -4 11 -44 25 -90 25 -83 31 -120 19
-120 -14 0 -116 63 -154 95 -42 35 -93 55 -141 55 -45 0 -101 25 -199 90 -152
100 -406 220 -465 220 -28 0 -15 -27 26 -55 23 -15 109 -62 190 -105 153 -81
234 -133 243 -156 10 -27 -28 -38 -173 -50 -80 -7 -174 -15 -208 -19 l-61 -7
-11 58 c-28 143 -102 316 -162 379 -15 17 -35 47 -44 68 -9 21 -36 63 -60 93
-26 32 -45 65 -45 79 0 45 72 100 234 180 276 135 357 159 364 108z m-1274
-21 c8 -14 -39 -53 -159 -133 -60 -41 -135 -100 -167 -132 -55 -57 -86 -69
-96 -39 -9 27 204 212 328 285 45 27 84 34 94 19z m684 -4 c-8 -22 -94 -69
-139 -75 -60 -8 -44 11 44 53 76 36 101 42 95 22z m-1713 -27 c-33 -16 -116
-44 -184 -61 -141 -35 -157 -42 -166 -70 -8 -25 -69 -42 -138 -38 -38 2 -52 7
-52 18 0 10 15 17 49 22 91 13 102 34 25 52 -33 8 -45 16 -47 32 -2 13 4 24
14 28 9 4 116 13 238 21 122 9 228 17 236 19 8 2 31 4 50 5 33 1 32 0 -25 -28z
m-594 -42 c29 -15 16 -26 -61 -49 -38 -11 -72 -25 -76 -31 -14 -23 6 -56 38
-65 26 -8 33 -15 33 -34 0 -23 -4 -25 -60 -28 -146 -7 -180 86 -61 167 70 48
144 64 187 40z m589 -127 c0 -27 -135 -112 -177 -112 -23 0 -14 17 22 45 77
58 155 92 155 67z m1020 -52 c0 -14 -49 -44 -58 -35 -4 3 4 15 17 26 26 21 41
24 41 9z m-8480 -92 c0 -46 -5 -132 -11 -193 -5 -60 -11 -163 -12 -229 l-2
-119 -98 7 c-76 5 -104 3 -126 -9 -36 -18 -121 -130 -156 -204 -42 -91 -49
-104 -62 -108 -24 -8 -53 215 -53 412 0 159 10 184 104 278 105 104 328 245
394 246 21 1 22 -2 22 -81z m8280 43 c0 -21 -44 -61 -66 -61 -22 0 -16 21 13
52 31 33 53 36 53 9z m-5773 -38 c9 -40 -12 -194 -41 -294 -51 -175 -178 -438
-245 -508 -53 -54 -50 -22 9 102 28 59 66 153 85 210 29 86 32 103 20 110 -24
13 -18 45 8 49 32 4 54 58 78 186 27 145 68 214 86 145z m4903 14 c0 -14 -20
-37 -32 -37 -4 0 -2 11 4 25 12 27 28 34 28 12z m1600 -13 c41 -28 121 -107
136 -136 8 -15 14 -38 14 -51 0 -13 7 -32 15 -43 22 -29 18 -54 -12 -78 -15
-11 -63 -52 -106 -90 l-79 -69 39 -33 c58 -50 180 -111 251 -124 35 -7 82 -25
106 -42 59 -39 126 -113 126 -139 0 -36 -21 -95 -45 -125 -31 -39 -90 -38
-166 2 -70 37 -309 275 -371 369 -51 77 -99 126 -198 204 -84 67 -123 117
-110 142 29 54 300 226 360 228 9 1 27 -6 40 -15z m-1812 -26 c-7 -23 -131
-97 -212 -129 -122 -47 -216 -49 -216 -5 0 16 87 53 250 107 119 39 185 49
178 27z m-4817 -38 c9 -42 -6 -152 -26 -191 -24 -45 -39 -37 -31 19 3 26 9 79
12 117 3 39 8 76 10 83 7 24 28 7 35 -28z m5218 -226 c96 -20 -52 -57 -310
-80 -133 -11 -106 28 41 60 113 24 212 31 269 20z m-4569 -245 c0 -64 -49
-133 -80 -114 -23 14 6 109 44 148 24 24 36 13 36 -34z m158 1 c32 -26 63 -71
56 -82 -8 -12 -172 -10 -179 2 -6 10 11 103 22 122 5 10 67 -16 101 -42z
m1327 16 c10 -15 14 -33 9 -50 -6 -26 -75 -96 -94 -96 -25 0 2 113 36 151 22
25 30 24 49 -5z m-2650 -82 c-9 -39 -24 -84 -35 -102 -17 -27 -25 -32 -59 -32
-51 0 -165 41 -197 71 -18 17 -21 25 -13 36 9 10 32 12 103 7 l91 -6 53 57
c66 73 79 66 57 -31z m8936 -14 c10 -6 19 -17 19 -24 0 -21 73 -82 111 -94 19
-6 50 -13 70 -16 51 -9 67 -30 44 -56 -10 -11 -24 -20 -31 -20 -20 0 -54 -50
-54 -81 0 -46 26 -53 131 -33 103 19 121 12 88 -30 -28 -35 -15 -45 56 -46 47
-1 49 -2 30 -16 -25 -19 -11 -45 33 -58 35 -10 84 -54 150 -134 26 -31 62 -61
90 -75 104 -50 139 -189 55 -223 -56 -24 -95 -11 -167 54 -35 32 -171 140
-302 239 -287 218 -340 263 -441 372 -42 46 -92 90 -110 98 -20 8 -33 20 -33
31 0 33 68 81 146 106 59 18 89 19 115 6z m-6586 -58 c-101 -60 -290 -115
-381 -110 -69 4 -81 22 -30 43 33 14 375 82 421 84 16 1 14 -3 -10 -17z m362
-28 c10 -27 -24 -81 -74 -115 -92 -64 -253 -121 -253 -90 0 4 42 35 92 67 51
32 117 80 146 106 55 50 79 59 89 32z m-242 -34 c9 -15 -107 -86 -180 -110
-65 -21 -115 -24 -117 -5 -2 14 73 54 172 92 90 34 115 39 125 23z m-645 -29
c35 -10 37 -36 4 -58 -37 -24 -125 -22 -185 5 -55 24 -66 37 -42 51 20 12 184
13 223 2z m-2003 -73 c-2 -13 -4 -5 -4 17 -1 22 1 32 4 23 2 -10 2 -28 0 -40z
m693 -37 c0 -5 -12 -19 -26 -30 -43 -34 -174 -66 -174 -43 0 11 53 41 113 62
59 21 87 24 87 11z m2340 -13 c0 -16 -31 -48 -47 -48 -20 0 -16 27 7 50 21 21
40 19 40 -2z m-252 -70 c4 -20 -36 -34 -52 -18 -8 8 -6 15 9 26 23 17 39 14
43 -8z m-4807 -184 c18 -20 58 -52 88 -71 l53 -35 -4 -66 c-4 -79 -40 -161
-78 -179 -14 -6 -44 -17 -68 -23 -53 -14 -112 -64 -112 -95 0 -25 40 -45 91
-45 40 0 62 -25 54 -64 -12 -58 -75 -177 -98 -185 -12 -5 -59 -15 -105 -24
-102 -19 -153 -43 -171 -81 -20 -42 -28 -246 -11 -286 23 -56 84 -51 197 17
97 57 183 147 249 260 31 54 95 161 142 238 121 199 122 204 133 380 11 198
10 195 58 195 30 0 40 -5 49 -24 6 -14 28 -31 56 -41 l46 -18 -46 -29 c-41
-26 -45 -32 -39 -56 10 -43 32 -70 75 -92 22 -11 47 -31 55 -44 9 -13 32 -89
51 -169 20 -79 44 -158 54 -175 10 -17 45 -49 78 -71 37 -24 69 -57 85 -84 35
-59 192 -207 264 -248 40 -23 123 -99 271 -247 236 -237 251 -255 232 -277
-27 -33 -113 -6 -205 64 -69 53 -103 70 -306 156 -190 79 -256 101 -419 135
-123 26 -235 62 -303 97 -134 70 -354 25 -499 -103 -48 -43 -107 -82 -175
-115 -171 -85 -274 -87 -323 -7 -41 67 -20 167 76 372 36 76 88 206 115 290
54 162 90 236 194 398 93 144 124 213 137 308 7 44 15 80 18 80 3 0 22 -16 41
-36z m1359 -4 c0 -5 -9 -10 -19 -10 -11 0 -23 5 -26 10 -4 6 5 10 19 10 14 0
26 -4 26 -10z m-450 -20 c0 -5 -12 -10 -26 -10 -14 0 -23 4 -19 10 3 6 15 10
26 10 10 0 19 -4 19 -10z m-267 -217 c-7 -2 -21 -2 -30 0 -10 3 -4 5 12 5 17
0 24 -2 18 -5z m316 -46 c55 -8 87 -18 91 -27 4 -8 13 -28 21 -45 22 -46 88
-75 174 -75 115 0 107 7 199 -179 85 -173 153 -281 240 -385 84 -99 140 -176
185 -254 28 -48 88 -120 177 -213 73 -77 134 -146 134 -153 0 -17 -33 -39 -83
-55 -54 -18 -97 -57 -97 -89 0 -14 12 -38 26 -53 15 -15 32 -38 38 -50 6 -12
42 -39 80 -61 38 -21 84 -52 103 -68 18 -16 50 -34 71 -39 21 -6 52 -25 69
-43 58 -60 96 -183 74 -240 -9 -25 -16 -28 -54 -28 -99 0 -177 50 -177 114 0
85 -40 140 -138 190 -55 28 -108 82 -145 147 -14 25 -49 70 -77 100 -62 65
-107 153 -120 233 -5 32 -20 77 -34 100 -36 61 -138 154 -254 231 -157 103
-271 250 -352 449 -58 146 -105 217 -161 243 -52 24 -72 46 -88 92 -12 37 -15
153 -4 164 8 8 -1 9 102 -6z m-709 -37 c0 -16 -4 -30 -10 -30 -5 0 -10 14 -10
30 0 17 5 30 10 30 6 0 10 -13 10 -30z m2125 -5 c22 -13 72 -33 110 -45 39
-12 115 -42 170 -66 55 -24 118 -48 140 -53 22 -6 49 -17 60 -25 19 -13 18
-15 -10 -56 -50 -72 -45 -211 10 -266 19 -19 35 -24 75 -24 28 0 65 7 81 16
28 14 32 14 48 0 23 -21 39 -20 97 5 95 43 242 6 372 -93 66 -49 86 -91 77
-159 -9 -67 -22 -74 -129 -74 -105 1 -127 7 -296 85 -69 32 -150 65 -181 74
-58 17 -95 38 -256 148 -54 36 -163 101 -243 143 -166 89 -220 124 -271 175
-24 24 -68 50 -127 75 -116 48 -122 55 -80 90 45 38 106 64 175 74 75 12 128
4 178 -24z m-530 -245 c12 -19 -166 -112 -183 -95 -13 13 24 59 67 82 45 24
105 31 116 13z m246 -76 c69 -21 307 -127 469 -210 153 -78 193 -102 186 -113
-3 -4 -53 -11 -112 -15 -138 -10 -237 -35 -350 -90 -88 -44 -143 -92 -197
-170 -19 -28 -52 -35 -60 -12 -3 8 -3 39 0 70 l6 56 -37 0 c-69 0 -62 44 24
158 82 108 96 165 44 178 -35 9 -75 -11 -150 -72 -36 -30 -70 -54 -75 -54 -20
0 -6 22 46 72 30 28 55 58 55 65 0 20 -39 15 -96 -11 -74 -35 -108 -40 -127
-21 -53 52 87 145 261 175 26 4 50 8 53 9 3 0 30 -6 60 -15z"/>
<path d="M10253 12500 c-82 -29 -173 -99 -173 -133 0 -19 87 -47 148 -47 49 0
64 -4 69 -16 7 -18 6 -20 -54 -97 -49 -61 -61 -103 -40 -131 14 -19 17 -19
122 -4 90 14 114 22 144 46 118 95 130 213 32 324 -65 74 -148 94 -248 58z"/>
<path d="M7653 11440 c-60 -21 -103 -49 -133 -87 -46 -58 -17 -88 83 -86 40 1
80 0 90 -3 32 -10 18 -46 -43 -107 -33 -33 -60 -68 -60 -78 0 -29 49 -78 87
-88 109 -30 240 62 279 195 21 73 6 120 -64 195 -75 82 -136 97 -239 59z"/>
<path d="M7380 10946 c0 -14 -10 -33 -24 -43 -56 -44 -74 -138 -35 -186 26
-34 127 -82 214 -102 81 -19 137 -10 235 36 159 75 297 213 274 273 -10 26
-39 19 -145 -34 -212 -107 -302 -103 -433 19 -36 34 -70 61 -76 61 -5 0 -10
-11 -10 -24z"/>
<path d="M8536 11023 c-3 -27 -13 -145 -21 -263 -35 -493 -52 -571 -148 -693
-23 -29 -85 -98 -139 -154 -89 -93 -112 -123 -90 -123 4 0 31 16 59 35 83 56
114 44 60 -23 -122 -154 -176 -212 -222 -237 -131 -72 -165 -102 -135 -120 13
-8 144 37 233 81 41 20 114 66 162 101 94 71 265 229 265 245 0 6 -11 8 -25 6
-31 -6 -40 5 -23 31 14 23 62 46 76 37 17 -10 59 32 81 83 35 83 77 492 75
746 -1 172 -11 223 -42 210 -62 -27 -106 -8 -132 56 -18 41 -27 36 -34 -18z
m152 -505 c-23 -152 -127 -392 -210 -483 -53 -58 -68 -66 -68 -37 0 10 20 35
45 55 27 23 45 46 45 59 0 11 19 64 42 117 36 84 42 106 42 173 l1 77 50 51
c27 27 52 50 56 50 3 0 2 -28 -3 -62z"/>
<path d="M9525 10847 c-12 -9 -51 -16 -95 -19 -83 -4 -135 -25 -181 -70 -33
-34 -39 -82 -11 -97 26 -14 186 -31 291 -31 87 0 98 2 134 27 38 27 39 27 54
8 11 -15 12 -38 8 -95 -6 -70 -5 -77 19 -110 49 -66 69 -121 74 -200 3 -60 1
-78 -11 -89 -14 -11 -20 -9 -42 13 -14 14 -25 37 -25 51 0 27 -9 32 -28 13
-13 -13 -16 -47 -6 -72 17 -44 139 -84 205 -66 60 16 82 57 74 139 -5 49 -4
62 6 59 13 -4 20 -15 38 -61 9 -23 16 -28 38 -25 54 6 41 35 -61 134 -108 105
-120 127 -162 286 -37 141 -53 171 -106 193 -59 24 -186 31 -213 12z"/>
<path d="M8866 10734 c-9 -23 -7 -67 4 -84 7 -11 10 2 10 43 0 59 -3 69 -14
41z"/>
<path d="M10127 10403 c-22 -21 7 -104 42 -123 31 -16 59 -12 66 10 15 47 -77
144 -108 113z"/>
<path d="M9576 10178 c13 -42 34 -77 53 -88 75 -39 79 45 5 90 -44 28 -67 27
-58 -2z"/>
<path d="M9514 10135 c-7 -19 2 -110 12 -127 10 -16 46 80 39 103 -9 28 -44
44 -51 24z"/>
<path d="M9377 10093 c-25 -25 9 -93 46 -93 20 0 24 49 7 81 -10 19 -40 26
-53 12z"/>
<path d="M10025 9525 c-52 -19 -540 -165 -684 -205 -101 -29 -242 -72 -315
-96 -154 -53 -530 -234 -546 -264 -6 -11 -52 -51 -103 -89 -100 -74 -185 -159
-290 -287 -47 -57 -96 -102 -162 -149 -53 -38 -94 -69 -92 -71 2 -2 28 3 58
12 73 22 159 80 314 210 163 139 278 224 482 358 277 182 302 193 722 321 376
114 654 221 653 250 -1 11 -21 16 -37 10z"/>
<path d="M9800 9160 c0 -5 11 -10 25 -10 14 0 25 5 25 10 0 6 -11 10 -25 10
-14 0 -25 -4 -25 -10z"/>
<path d="M7252 8750 c-124 -45 -240 -127 -273 -193 -12 -23 -33 -54 -46 -69
-33 -35 -25 -63 15 -54 51 12 207 95 277 148 67 51 120 119 127 163 4 28 -33
30 -100 5z"/>
<path d="M10728 8670 c-34 -26 -75 -111 -124 -255 -50 -147 -85 -224 -134
-292 -22 -31 -38 -59 -35 -62 11 -11 94 84 138 158 63 105 106 210 118 285 6
34 23 84 40 113 36 63 35 83 -3 53z"/>
<path d="M10282 8462 c-57 -87 -69 -112 -54 -112 21 0 101 114 117 168 13 43
-11 21 -63 -56z"/>
<path d="M10090 8138 c-24 -39 -25 -48 -6 -48 17 0 56 46 56 66 0 26 -30 14
-50 -18z"/>
<path d="M5302 8003 c-38 -56 -191 -360 -207 -413 -26 -85 -45 -124 -56 -113
-5 5 -12 50 -15 101 -4 51 -10 92 -13 92 -21 -1 -119 -81 -134 -110 -27 -52
-76 -81 -150 -89 -70 -7 -118 -35 -142 -81 -11 -20 -19 -106 -30 -302 -21
-368 -16 -350 -92 -363 l-43 -7 0 39 c0 48 26 227 41 287 20 82 -13 71 -55
-18 -116 -246 -149 -552 -70 -645 28 -34 63 -47 152 -56 l64 -7 62 64 c99 101
178 251 247 469 l33 102 -38 32 -39 32 33 61 c18 34 57 89 86 124 37 42 56 74
60 99 15 94 44 73 54 -41 4 -45 12 -86 18 -92 18 -18 74 26 185 146 93 102
106 121 122 178 23 82 31 277 16 392 -19 137 -48 177 -89 119z"/>
<path d="M9863 8015 c-3 -9 -3 -19 1 -22 7 -7 36 16 36 28 0 15 -30 10 -37 -6z"/>
<path d="M6206 6624 c-103 -37 -325 -274 -402 -427 -21 -40 -56 -90 -85 -117
-27 -26 -49 -51 -49 -55 0 -4 25 -5 55 -1 68 8 69 3 15 -102 -27 -50 -43 -96
-47 -132 -8 -76 -19 -93 -90 -139 -78 -51 -115 -104 -121 -177 -5 -65 4 -80
59 -87 24 -3 65 -22 101 -46 107 -72 163 -55 227 69 52 99 93 147 145 169 l39
17 -69 40 -69 39 -5 140 c-3 77 -7 145 -9 150 -8 22 2 37 82 123 45 49 98 117
117 151 19 33 64 107 99 163 88 142 113 195 106 218 -8 24 -42 25 -99 4z"/>
<path d="M8377 6403 c-13 -12 -7 -33 8 -33 8 0 15 9 15 20 0 20 -11 26 -23 13z"/>
<path d="M8215 6230 c-21 -23 -12 -39 13 -24 19 12 29 44 14 44 -5 0 -17 -9
-27 -20z"/>
<path d="M8019 6067 c-57 -40 -155 -105 -216 -143 -108 -66 -139 -93 -90 -79
56 17 246 126 316 181 70 56 123 114 103 114 -5 0 -55 -33 -113 -73z"/>
<path d="M8219 5994 c-80 -83 -244 -178 -597 -343 -94 -45 -247 -116 -339
-159 -93 -44 -185 -85 -206 -93 -22 -7 -43 -21 -48 -31 -11 -20 -1 -51 15 -44
6 2 128 58 271 124 321 147 533 254 649 328 49 31 116 68 150 84 89 40 206
170 153 170 -7 0 -29 -16 -48 -36z"/>
<path d="M9008 5791 c-65 -66 -118 -124 -118 -130 0 -26 29 -5 119 87 89 92
143 162 124 162 -4 0 -61 -54 -125 -119z"/>
<path d="M8370 5724 c-35 -20 -89 -53 -120 -74 -30 -20 -77 -49 -103 -65 -46
-27 -48 -27 -68 -9 -28 25 -65 14 -276 -85 -94 -44 -259 -117 -365 -161 -362
-152 -756 -336 -803 -374 -19 -16 -19 -17 14 -10 69 13 492 188 916 379 275
123 359 154 482 179 46 9 104 26 130 37 101 43 315 220 266 219 -5 0 -37 -16
-73 -36z"/>
<path d="M8531 5389 c-125 -86 -318 -197 -490 -284 -113 -57 -192 -105 -151
-92 42 13 231 92 314 131 177 82 446 265 446 302 0 8 -3 14 -7 14 -5 0 -55
-32 -112 -71z"/>
<path d="M8140 5009 c-88 -47 -116 -66 -107 -76 11 -10 85 18 151 58 111 67
76 82 -44 18z"/>
<path d="M7915 4890 c-106 -28 -241 -78 -325 -118 l-75 -36 42 -4 c28 -2 73 7
135 28 111 37 298 124 298 139 0 6 -1 11 -2 10 -2 0 -35 -9 -73 -19z"/>
<path d="M5204 3150 c-32 -13 -111 -20 -313 -30 -190 -8 -248 -22 -144 -34 65
-7 387 10 446 23 39 9 67 27 67 42 0 11 -28 11 -56 -1z"/>
<path d="M2519 7886 c-104 -29 -279 -136 -279 -171 0 -26 37 -17 138 34 103
52 142 65 234 76 70 8 88 25 59 54 -24 24 -79 27 -152 7z"/>
<path d="M1710 6163 c-31 -11 -83 -70 -112 -127 -32 -63 -173 -421 -214 -543
-13 -39 -24 -81 -24 -94 0 -13 19 -39 50 -67 l51 -46 -2 -108 c-1 -60 1 -112
5 -115 4 -4 18 0 31 8 46 27 197 172 247 236 27 34 103 106 169 159 113 92
119 98 114 128 -7 44 -23 206 -31 308 -3 48 -11 94 -18 103 -6 8 -35 19 -65
25 -66 12 -91 33 -91 75 0 52 -51 79 -110 58z"/>
<path d="M1484 4660 c-48 -19 -100 -119 -123 -230 -26 -132 -63 -586 -71 -885
-6 -227 -13 -329 -25 -380 -22 -95 -15 -162 29 -250 19 -39 44 -79 54 -88 43
-39 122 -38 122 1 0 11 -15 39 -33 63 -59 78 -72 133 -72 314 0 137 3 169 22
225 30 92 32 108 48 375 20 327 38 412 141 660 45 110 49 150 14 176 -31 23
-78 32 -106 19z"/>
<path d="M2321 3637 c-6 -8 -22 -49 -37 -93 -42 -130 -90 -199 -196 -280 -94
-73 -82 -84 93 -84 127 0 156 8 194 50 11 13 43 40 72 61 84 63 92 122 28 209
-18 25 -41 64 -50 86 -21 55 -78 82 -104 51z"/>
</g>
</svg>
